<svg xmlns="http://www.w3.org/2000/svg" width="50" height="50" fill="none"><rect width="50" height="50" fill="#358EAE" rx="10"/><path stroke="#F7F7F7" stroke-linecap="round" stroke-linejoin="round" stroke-width="2" d="M38 24.5C38 17.044 31.956 11 24.5 11S11 17.044 11 24.5 17.044 38 24.5 38"/><path stroke="#F7F7F7" stroke-linecap="round" stroke-linejoin="round" stroke-width="2" d="M26.136 12.064S29.99 17.14 29.99 24.85m-6.426 12.787S19.71 32.56 19.71 24.85c0-7.71 3.855-12.786 3.855-12.786M12.81 29.348h12.04m-12.04-8.995H36.89"/><path stroke="#F7F7F7" stroke-width="2" d="M37.545 32.454c.635.39.595 1.34-.057 1.415l-3.3.374-1.478 2.97c-.293.59-1.2.301-1.35-.428l-1.612-7.86c-.127-.617.428-1.005.964-.675l6.833 4.204Z"/></svg>