<svg xmlns="http://www.w3.org/2000/svg" width="50" height="50" fill="none"><rect width="50" height="50" fill="#E2574C" rx="10"/><path fill="#fff" d="M39 28v-2h-5.75v10h1.917v-4h2.875v-2h-2.875v-2H39Zm-10.542 8h-3.833V26h3.833c.763 0 1.493.317 2.032.88a3.07 3.07 0 0 1 .843 2.12v4a3.07 3.07 0 0 1-.843 2.12 2.818 2.818 0 0 1-2.032.88Zm-1.916-2h1.916a.94.94 0 0 0 .678-.293c.18-.188.28-.442.28-.707v-4c0-.265-.1-.52-.28-.707a.94.94 0 0 0-.678-.293h-1.916v6Zm-5.75-8H16v10h1.917v-3h2.875a1.88 1.88 0 0 0 1.354-.587c.36-.375.562-.883.562-1.413v-3c0-.53-.202-1.039-.562-1.414A1.879 1.879 0 0 0 20.792 26Zm-2.875 5v-3h2.875v3h-2.875Z"/><path fill="#fff" d="M33.125 22.875V18.25a1.051 1.051 0 0 0-.347-.809l-8.094-8.094A1.051 1.051 0 0 0 23.875 9H12.312A2.32 2.32 0 0 0 10 11.313v27.75a2.312 2.312 0 0 0 2.313 2.312h18.5v-2.312h-18.5v-27.75h9.25v6.937a2.32 2.32 0 0 0 2.312 2.313h6.938v2.312h2.312Zm-9.25-4.625v-6.475l6.475 6.475h-6.475Z"/></svg>